<svg width="512" height="512" viewBox="0 0 512 512" fill="none" xmlns="http://www.w3.org/2000/svg">
<g clip-path="url(#clip0_8_255)">
<path d="M195.72 115.375C172.041 115.375 148.244 124.417 130.137 142.523C94.1037 178.557 93.9683 236.757 129.651 273.008V273.107L251.378 394.737C253.943 397.26 258.057 397.26 260.622 394.737L382.349 273.107C382.349 273.075 382.349 273.042 382.349 273.008C418.031 236.757 417.896 178.557 381.862 142.523C363.973 124.634 340.548 115.581 317.155 115.375C295.108 115.181 273.718 121.852 256.048 137.359C238.601 122.008 217.525 115.375 195.72 115.375ZM195.72 128.512C215.828 128.512 235.832 136.173 251.378 151.476C253.943 153.999 258.057 153.999 260.622 151.476C276.352 135.993 296.707 128.333 317.059 128.512C337.124 128.691 357.105 136.447 372.522 151.864C403.577 182.919 403.659 232.526 372.912 263.764L256.049 380.724L139.09 263.764C108.341 232.526 108.424 182.919 139.478 151.864C155.082 136.262 175.407 128.512 195.72 128.512Z" fill="#009DA4"/>
<path d="M237.561 196.721C235.069 197.07 232.992 198.806 232.209 201.197L216.057 249.363H168.086C164.464 249.402 161.552 252.357 161.567 255.98C161.552 259.602 164.464 262.557 168.086 262.596H220.824C223.644 262.59 226.147 260.791 227.052 258.12L238.436 224.064L267.336 310.762C268.529 314.201 272.284 316.022 275.723 314.829C277.63 314.168 279.129 312.669 279.79 310.762L295.943 262.596H343.913C347.536 262.557 350.447 259.602 350.433 255.98C350.447 252.357 347.535 249.402 343.913 249.363H291.175C288.293 249.341 285.732 251.193 284.85 253.937L273.563 287.993L244.664 201.197C243.676 198.195 240.696 196.318 237.561 196.721Z" fill="#009DA4"/>
</g>
<defs>
<clipPath id="clip0_8_255">
<rect width="306" height="306" fill="white" transform="translate(103 103)"/>
</clipPath>
</defs>
</svg>
