<svg width="512" height="512" viewBox="0 0 512 512" fill="none" xmlns="http://www.w3.org/2000/svg">
<path fill-rule="evenodd" clip-rule="evenodd" d="M144.176 149.165C131.249 165.616 123.417 188.091 123.417 211.555C123.417 225.171 125.758 238.198 129.88 250.601H206.78L236.778 197.271L255.523 262.877L278.461 233.385H335.917V251.094H287.122L248.081 301.29L231.409 242.937L217.136 268.31H88V250.601H111.338C107.748 238.217 105.708 225.179 105.708 211.555C105.708 184.326 114.75 157.951 130.252 138.224C145.796 118.443 168.184 105 194.526 105C225.548 105 249.138 122.384 265.083 146.914C281.028 122.385 304.618 105 335.64 105C361.985 105 384.373 118.445 399.916 138.227C415.417 157.956 424.458 184.331 424.458 211.555C424.458 269.838 384.228 318.509 346.166 351.73C326.917 368.531 307.711 381.83 293.335 390.923C286.139 395.476 280.129 398.989 275.9 401.374C273.785 402.566 272.114 403.478 270.959 404.097C270.383 404.407 269.935 404.644 269.625 404.806L269.266 404.992L269.166 405.044L269.137 405.06L269.127 405.064C269.127 405.064 269.121 405.068 265.083 397.188C261.242 405.165 261.24 405.164 261.24 405.164L261.187 405.139L261.064 405.078L260.616 404.859C260.232 404.668 259.675 404.389 258.96 404.026C257.529 403.296 255.462 402.22 252.861 400.81C247.662 397.989 240.32 393.822 231.666 388.394C214.39 377.556 191.727 361.596 170.416 341.177C159.048 330.285 148.007 318.07 138.359 304.627C135.508 300.654 136.417 295.122 140.389 292.271C144.362 289.42 149.894 290.329 152.745 294.302C161.639 306.693 171.922 318.095 182.667 328.391C202.846 347.724 224.454 362.965 241.076 373.392C249.372 378.596 256.386 382.575 261.305 385.244C262.702 386.002 263.929 386.654 264.966 387.196C265.635 386.828 266.381 386.412 267.202 385.949C271.204 383.692 276.954 380.332 283.869 375.958C297.716 367.198 316.14 354.433 334.521 338.389C371.72 305.921 406.75 261.775 406.75 211.555C406.75 188.095 398.919 165.619 385.992 149.168C373.109 132.771 355.514 122.708 335.64 122.708C308.168 122.708 286.859 140.601 273.031 168.766L265.083 184.954L257.136 168.766C243.307 140.599 221.998 122.708 194.526 122.708C174.654 122.708 157.06 132.769 144.176 149.165ZM265.083 397.188L261.24 405.164L265.206 407.073L269.127 405.064L265.083 397.188Z" fill="#009DA4"/>
</svg>
