<svg width="512" height="512" viewBox="0 0 512 512" fill="none" xmlns="http://www.w3.org/2000/svg">
<path d="M207.166 355.433L198.757 358.944C200.027 361.986 201.578 364.913 203.366 367.644L210.989 362.653C209.508 360.388 208.221 357.96 207.166 355.433Z" fill="#009DA4"/>
<path d="M399.709 165.034C399.709 150.155 394.502 135.652 385.047 124.196L378.019 129.996C407.689 164.593 381.18 221.007 335.508 220.12C305.134 220.121 280.422 195.409 280.422 165.034C279.527 118.836 337.089 92.5068 371.44 123.277L377.387 116.373C344.951 86.965 289.399 102.002 275.451 142.355C270.818 143.14 266.471 144.923 262.626 147.617C252.056 140.034 236.75 140.036 226.181 147.62C215.611 140.034 200.302 140.035 189.732 147.62C171.053 133.791 142.251 146.655 139.9 169.521C133.606 170.368 127.688 173.078 122.905 177.358L128.984 184.148C134.305 179.12 141.656 177.924 148.727 178.347C146.287 153.952 172.949 141.601 189.732 159.535C194.586 154.616 200.851 150.829 207.957 151.01C215.06 150.829 221.332 154.617 226.181 159.535C231.035 154.616 237.3 150.829 244.406 151.01C251.509 150.829 257.781 154.617 262.631 159.535C265.502 156.871 268.834 153.881 272.528 152.577C269.47 167.34 272.278 183.929 279.587 196.532C272.968 196.347 267.192 192.627 262.631 188.046C257.778 192.965 251.512 196.752 244.407 196.571C237.303 196.752 231.032 192.964 226.182 188.046C221.329 192.965 215.063 196.752 207.957 196.571C200.854 196.752 194.583 192.964 189.733 188.046C182.617 195.106 176.893 197.058 166.952 196.571C167.44 206.521 165.481 212.241 158.426 219.352C163.346 224.205 167.132 230.471 166.951 237.577C167.132 244.68 163.345 250.951 158.426 255.801C163.346 260.655 167.132 266.92 166.951 274.026C167.132 281.129 163.345 287.401 158.426 292.25C163.346 297.104 167.132 303.369 166.951 310.475C167.138 317.609 163.305 323.895 158.37 328.761C173.158 340.893 167.554 365.391 148.727 369.406V401.888H139.615V369.405C108.678 354.187 129.971 328.761 129.971 328.761C125.035 323.89 121.204 317.612 121.391 310.474C121.209 303.372 124.997 297.099 129.916 292.25C124.996 287.396 121.209 281.132 121.391 274.025C121.209 266.922 124.997 260.65 129.916 255.801C124.996 250.947 121.209 244.682 121.391 237.576C121.209 230.473 124.997 224.201 129.916 219.351C121.98 211.874 118.74 201.032 123.775 190.965L115.623 186.895C110.414 197.074 111.391 210.059 118 219.351C110.414 229.922 110.415 245.23 118 255.801C110.414 266.371 110.415 281.68 118 292.25C110.425 302.806 110.413 318.086 117.969 328.655C106.681 343.497 113.349 368.54 130.502 375.793V411H157.839V375.792C174.993 368.54 181.658 343.495 170.372 328.655C177.927 318.086 177.915 302.805 170.341 292.25C177.927 281.68 177.926 266.371 170.341 255.801C177.927 245.23 177.926 229.922 170.341 219.351C173.239 215.194 175.101 210.415 175.777 205.397C180.795 204.721 185.575 202.859 189.732 199.961C200.302 207.547 215.611 207.546 226.181 199.961C236.751 207.547 252.06 207.546 262.63 199.961C269.204 204.575 277.571 206.562 285.565 205.322C293.15 214.706 303.317 221.92 314.979 225.867C311.049 235.603 312.412 247.265 318.47 255.801C310.884 266.371 310.885 281.68 318.47 292.25C315.572 296.407 313.71 301.186 313.033 306.204C308.016 306.88 303.236 308.742 299.079 311.641C289.419 304.737 275.663 304.024 265.363 309.925C235.357 279.314 186.352 305.99 195.549 348.302L204.497 346.582C196.507 308.648 242.984 290.358 263.546 322.32C268.45 318.234 274.265 314.818 280.855 315.031C287.957 314.85 294.23 318.637 299.079 323.556C306.195 316.495 311.919 314.543 321.86 315.03C321.372 305.081 323.331 299.36 330.386 292.249C325.466 287.396 321.68 281.13 321.861 274.025C321.68 266.922 325.467 260.649 330.386 255.8C322.682 248.509 319.36 238.142 323.89 228.175C336.686 230.624 350.965 228.739 362.401 223.32C370.613 233.685 368.283 247.073 358.895 255.8C363.815 260.653 367.601 266.919 367.42 274.025C367.601 281.127 363.814 287.4 358.895 292.249C376.838 309.045 364.462 335.696 340.084 333.255C342.523 357.649 315.863 370 299.079 352.066C294.226 356.985 287.96 360.772 280.854 360.591C274.608 360.824 268.937 357.539 264.047 353.994C261.472 359.185 258.324 364.969 254.47 368.987C246.065 378.154 241.027 389.697 240.032 401.887H230.543C229.556 390.332 224.84 379.188 217.016 370.097L210.109 376.041C218.736 385.883 222.319 398.413 221.625 411H248.962C248.223 397.928 252.058 384.887 261.187 375.146C263.496 372.626 265.607 369.822 267.492 366.774C277.506 371.514 290.065 370.399 299.079 363.981C317.758 377.81 346.561 364.948 348.911 342.082C371.78 339.732 384.637 310.927 370.81 292.25C378.396 281.68 378.396 266.371 370.81 255.801C378.525 245.057 378.376 229.457 370.455 218.862C388.051 207.4 399.709 187.554 399.709 165.034Z" fill="#009DA4"/>
<path d="M349.197 196.675V178.418H367.454V151.043H349.197V132.786H321.822V151.043H303.564V178.418H321.822V196.675H349.197ZM312.677 169.306V160.155H330.934V141.898H340.085V160.156H358.342V169.307H340.085V187.563H330.934V169.307L312.677 169.306Z" fill="#009DA4"/>
<path d="M303.635 132.786H312.748V141.898H303.635V132.786Z" fill="#009DA4"/>
<path d="M157.839 164.679H166.952V173.791H157.839V164.679Z" fill="#009DA4"/>
<path d="M216.933 324.143H226.046V333.255H216.933V324.143Z" fill="#009DA4"/>
<path d="M216.933 342.367H226.046V351.48H216.933V342.367Z" fill="#009DA4"/>
</svg>
