<svg width="512" height="512" viewBox="0 0 512 512" fill="none" xmlns="http://www.w3.org/2000/svg">
<path fill-rule="evenodd" clip-rule="evenodd" d="M234.526 148.862C241.379 154.732 251.427 154.929 258.505 149.338L258.527 149.32L258.579 149.281C258.667 149.213 258.826 149.091 259.055 148.919C259.512 148.575 260.243 148.036 261.222 147.345C263.184 145.961 266.116 143.985 269.815 141.765C277.29 137.276 287.498 132.027 298.871 128.503C321.454 121.505 345.391 121.847 364.875 144.438C376.628 158.066 381.535 171.245 382.787 184.18C383.697 193.577 382.729 203.4 380.366 213.825C367.9 204.737 352.546 199.375 335.937 199.375C294.24 199.375 260.437 233.177 260.437 274.875C260.437 316.006 293.327 349.455 334.242 350.356C331.173 359.094 328.397 365.192 325.489 370.055C322.059 375.794 318.094 380.409 311.98 385.936C308.898 383.016 305 378.346 299.855 371.731C299.044 370.689 298.204 369.6 297.337 368.478C292.033 361.609 285.748 353.467 279.341 346.967C272.575 340.105 261.189 330.225 246.317 330.27C231.513 330.316 220.097 340.038 213.19 346.948C206.689 353.454 200.315 361.592 194.935 368.461C194.06 369.578 193.21 370.663 192.392 371.701C187.139 378.357 183.169 383.047 180.03 385.966C164.823 371.11 156.44 350.025 146.802 310.792C144.623 301.924 141.295 291.241 137.856 280.208C136.869 277.045 135.875 273.851 134.896 270.665C130.358 255.898 125.851 240.351 122.762 224.999C116.276 192.763 117.501 168.089 129.531 153.483C145.527 134.062 161.427 125.227 176.734 124.023C192.108 122.814 211.283 128.952 234.526 148.862ZM354.922 347.968C345.283 378.492 337.316 389.362 319.775 404.178C308.461 413.734 295.702 397.228 282.274 379.857C270.641 364.808 258.507 349.109 246.374 349.145C234.041 349.183 221.711 364.907 209.914 379.95C196.308 397.302 183.411 413.748 172.037 404.178C149.071 384.852 138.999 358.149 128.472 315.295C126.446 307.045 123.363 297.149 119.963 286.237C105.704 240.47 85.87 176.803 114.962 141.483C150.99 97.7409 195.766 90.8054 246.806 134.526C246.806 134.526 326.627 71.1907 379.169 132.111C406.531 163.838 405.394 196.705 395.899 228.99C405.646 241.708 411.437 257.615 411.437 274.875C411.437 310.016 387.43 339.549 354.922 347.968ZM392.562 274.875C392.562 306.148 367.21 331.5 335.937 331.5C304.664 331.5 279.312 306.148 279.312 274.875C279.312 243.602 304.664 218.25 335.937 218.25C367.21 218.25 392.562 243.602 392.562 274.875ZM335.937 237.125C330.725 237.125 326.5 241.35 326.5 246.563V265.438H307.625C302.413 265.438 298.187 269.663 298.187 274.875C298.187 280.087 302.413 284.313 307.625 284.313H326.5V303.188C326.5 308.4 330.725 312.625 335.937 312.625C341.15 312.625 345.375 308.4 345.375 303.188V284.313H364.25C369.462 284.313 373.687 280.087 373.687 274.875C373.687 269.663 369.462 265.438 364.25 265.438H345.375V246.563C345.375 241.35 341.15 237.125 335.937 237.125Z" fill="#009DA4"/>
</svg>
