<svg width="512" height="512" viewBox="0 0 512 512" fill="none" xmlns="http://www.w3.org/2000/svg">
<path d="M421.072 261.873H314.896L317.55 287.279C318.309 295.622 319.067 300.931 319.067 305.481C319.067 340.367 290.627 368.807 255.741 368.807C220.854 368.807 192.414 340.367 192.414 305.481C192.414 302.447 192.794 294.863 195.069 279.316L197.723 261.873H91.168C82.8256 261.873 76 268.699 76 277.041C76 285.383 82.8256 292.209 91.168 292.209H163.216C162.837 297.139 162.458 301.689 162.458 305.481C162.458 357.052 204.549 398.764 256.12 398.764C307.691 398.764 349.403 357.052 349.403 305.481C349.403 301.689 349.024 297.518 348.645 292.209H421.451C429.794 292.209 436.619 285.383 436.619 277.041C436.24 268.699 429.414 261.873 421.072 261.873Z" fill="#009DA4"/>
<path d="M255.741 340.366C275.08 340.366 291.007 324.819 291.007 305.101C291.007 288.416 274.322 192.858 294.04 119.293C295.557 113.984 288.352 110.571 284.94 115.122C235.264 192.099 220.476 288.416 220.476 305.48C220.476 324.819 236.402 340.366 255.741 340.366Z" fill="#009DA4"/>
</svg>
