<svg width="512" height="512" viewBox="0 0 512 512" fill="none" xmlns="http://www.w3.org/2000/svg">
<path d="M225.205 407H193.315C191.022 407 189.141 405.266 188.936 402.973L188.877 402.533C188.818 401.974 188.759 401.386 188.759 400.828L188.789 393.745C188.818 389.395 188.847 385.045 188.847 380.695C188.847 379.049 188.818 377.256 188.583 375.639C188.465 374.875 188.348 374.464 188.26 374.258C188.025 374.199 187.584 374.17 186.761 374.17L176.826 374.376C171.918 374.493 167.01 374.581 162.101 374.67L160.132 374.728C157.605 374.787 154.959 374.875 152.285 374.611C145.025 373.905 139.47 370.378 136.178 364.353C134.797 361.796 134.209 358.916 134.385 355.595C134.621 351.568 134.826 347.541 135.003 343.515C134.209 343.25 133.357 342.927 132.504 342.486C129.213 340.811 126.949 337.93 126.273 334.58C125.597 331.288 126.538 327.849 128.83 325.116C129.448 324.381 130.094 323.734 130.77 323.117C128.478 322.441 126.391 321.589 124.451 320.56C122.893 319.737 121.424 318.65 120.189 317.445C116.839 314.182 116.163 309.862 118.367 305.571L121.512 299.457C124.716 293.197 127.919 286.937 131.182 280.706C132.152 278.854 133.386 277.208 134.738 275.944C144.555 266.774 155.665 262.277 167.627 262.571C173.27 262.718 178.619 263.953 183.498 266.245C199.722 273.887 212.272 284.879 220.796 298.987C224.852 305.718 227.144 313.448 227.762 322.647C229.055 341.604 229.231 360.826 229.437 379.431C229.496 384.574 229.554 389.718 229.613 394.861C229.643 396.625 229.643 398.388 229.613 400.181V402.621C229.613 405.031 227.644 407 225.205 407ZM197.577 398.183H220.825C220.825 397.095 220.825 396.037 220.796 394.95C220.708 389.806 220.678 384.633 220.619 379.49C220.443 361.032 220.237 341.928 218.974 323.235C218.445 315.475 216.563 309.009 213.242 303.513C205.542 290.757 194.579 281.176 179.736 274.21C175.945 272.447 171.801 271.477 167.392 271.359C157.663 271.153 148.905 274.71 140.734 282.352C140.087 282.939 139.47 283.792 138.97 284.732C135.708 290.963 132.534 297.194 129.33 303.425L126.215 309.568C125.744 310.479 125.833 310.567 126.362 311.096C127.008 311.743 127.802 312.301 128.625 312.742C131.27 314.153 134.356 315.093 138.353 315.711C139.029 315.828 139.705 316.005 140.352 316.181L140.94 316.328C142.762 316.798 144.085 318.356 144.231 320.208L144.261 320.678C144.378 322.089 143.82 323.47 142.762 324.41L140.793 326.115C140.175 326.674 139.499 327.203 138.853 327.732C137.618 328.76 136.443 329.701 135.561 330.73C135.15 331.2 134.709 331.935 134.885 332.758C135.032 333.463 135.59 334.11 136.472 334.58C137.031 334.874 137.648 335.079 138.265 335.285C139 335.55 139.735 335.814 140.469 336.138C142.262 336.931 143.996 339.018 143.908 341.428C143.732 346.307 143.467 351.186 143.203 356.065C143.115 357.74 143.35 359.033 143.938 360.121C145.789 363.56 148.817 365.411 153.137 365.823C155.283 366.029 157.546 365.97 159.897 365.911L161.925 365.852C166.833 365.764 171.712 365.646 176.621 365.558L186.555 365.353C192.845 365.235 196.342 368.086 197.253 374.346C197.577 376.521 197.635 378.667 197.635 380.665C197.635 385.045 197.606 389.395 197.577 393.774V398.183ZM322.078 406.941H251.245C248.894 406.941 246.954 405.119 246.837 402.768L246.807 402.239C246.778 401.71 246.748 401.181 246.748 400.651L246.895 375.933C247.042 354.713 247.16 333.463 247.248 312.242V309.274C247.248 303.837 247.219 298.223 248.071 292.58C249.158 285.438 251.186 276.179 257.27 268.009C261.121 262.865 266.323 259.191 272.73 257.104C277.991 255.4 282.282 253.107 285.839 250.08C288.543 247.787 289.395 243.144 287.661 239.94C286.544 237.853 283.429 236.619 281.254 237.412C279.314 238.118 277.198 239.176 274.846 240.704C268.145 245.025 260.768 249.404 252.098 252.108C240.782 255.635 230.054 255.076 220.208 250.462C217.651 249.257 213.889 247.376 210.656 244.672C204.954 239.91 198.165 237.677 192.257 236.148C181.529 233.327 171.213 234.238 161.572 238.823C146.7 245.936 136.296 255.576 129.712 268.273C126.009 275.474 123.687 283.233 121.747 290.522L121.306 292.109C120.807 293.902 119.219 295.195 117.368 295.313C112.077 295.695 107.198 293.755 103.907 290.023C100.556 286.202 99.2628 280.911 100.409 275.533C101.085 272.27 102.202 269.067 103.613 266.274C109.609 254.371 116.28 240.087 120.483 224.568C121.512 220.747 122.159 216.691 122.717 212.841C122.952 211.342 122.893 209.667 122.835 207.874L122.805 206.904C122.188 182.127 129.712 160.554 145.172 142.802C156.341 129.958 170.39 120.464 188.054 113.704C206.747 106.621 225.91 103.829 245.044 105.445C275.875 108.032 301.798 119.906 322.108 140.744C337.156 156.204 346.062 175.014 348.53 196.646C349.324 203.612 349.295 210.813 348.413 218.073C348.295 218.954 348.354 219.983 348.413 221.1C348.472 222.246 348.501 223.393 348.442 224.539C347.825 235.766 344.298 246.288 341.33 254.195C339.213 259.838 336.656 265.334 334.217 270.683L332.689 274.004C332.042 275.386 331.16 276.385 330.425 277.208C330.161 277.502 329.867 277.825 329.632 278.149L329.132 278.883C328.662 279.53 328.045 280.441 327.956 280.853C327.281 283.674 326.575 286.584 326.575 289.288C326.487 318.415 326.516 347.571 326.516 376.698V402.503C326.487 404.972 324.488 406.941 322.078 406.941ZM255.566 398.124H317.64V376.727C317.64 347.571 317.64 318.444 317.699 289.288C317.699 285.555 318.551 281.969 319.315 278.825C319.815 276.797 320.932 275.18 321.814 273.887L322.255 273.27C322.695 272.594 323.254 271.976 323.812 271.359C324.106 271.036 324.547 270.536 324.635 270.36L326.164 267.009C328.544 261.836 331.043 256.458 333.041 251.138C335.98 243.349 339.037 234.062 339.595 224.098C339.654 223.246 339.595 222.423 339.566 221.57C339.507 220.218 339.449 218.69 339.625 217.073C340.418 210.519 340.448 203.994 339.742 197.705C337.509 178.042 329.455 160.965 315.788 146.946C297.007 127.636 272.965 116.643 244.309 114.233C226.498 112.734 208.657 115.35 191.258 121.963C174.945 128.165 162.072 136.894 151.873 148.592C137.707 164.845 131.094 183.861 131.652 206.698L131.681 207.609C131.74 209.696 131.799 211.871 131.476 214.134C130.858 218.22 130.182 222.57 129.036 226.861C124.627 243.144 117.721 257.927 111.519 270.242C110.461 272.358 109.609 274.827 109.079 277.355C108.521 280.03 109.05 282.498 110.578 284.233C111.431 285.202 112.518 285.878 113.811 286.261C115.781 279.089 118.161 271.506 121.923 264.246C129.389 249.757 141.145 238.823 157.81 230.858C169.361 225.332 181.735 224.245 194.52 227.596C200.957 229.271 209.216 231.975 216.328 237.882C218.18 239.44 220.619 240.88 223.97 242.468C231.876 246.171 240.223 246.582 249.482 243.702C257.123 241.321 263.883 237.295 270.056 233.297C272.995 231.387 275.669 230.035 278.285 229.094C284.575 226.861 292.246 229.859 295.45 235.766C299.124 242.614 297.419 251.843 291.541 256.81C287.073 260.602 281.812 263.453 275.434 265.51C270.732 267.039 267.087 269.566 264.324 273.299C260.474 278.472 258.152 284.82 256.771 293.932C256.007 298.928 256.036 303.954 256.036 309.274V312.331C255.977 333.581 255.83 354.801 255.683 376.051L255.566 398.124Z" fill="#009DA4"/>
</svg>
