<svg width="512" height="512" viewBox="0 0 512 512" fill="none" xmlns="http://www.w3.org/2000/svg">
<path fill-rule="evenodd" clip-rule="evenodd" d="M345.692 255.127H406.732C423.312 255.127 436.754 241.685 436.754 225.105C436.754 208.525 423.312 195.083 406.732 195.083H253.677L274.347 187.524C294.25 180.245 299.979 154.834 285.125 139.719C277.13 131.582 265.123 128.858 254.399 132.747L146.03 172.044C103.42 187.496 75.043 227.971 75.043 273.296C75.043 332.779 123.264 381 182.747 381H282.791C297.773 381 309.92 368.855 309.92 353.872V348.085C309.92 344.914 309.375 341.87 308.375 339.042H313.273C328.255 339.042 340.401 326.896 340.401 311.914V306.127C340.401 300.843 338.89 295.911 336.277 291.742C342.927 286.797 347.236 278.88 347.236 269.956V264.169C347.236 260.999 346.691 257.955 345.692 255.127ZM418.668 225.105C418.668 218.512 413.324 213.169 406.732 213.169H253.677C233.459 213.169 228.477 185.042 247.465 178.098L268.135 170.539C275.688 167.776 277.863 158.132 272.226 152.395C269.191 149.307 264.634 148.274 260.564 149.749L152.196 189.047C116.74 201.904 93.1285 235.582 93.1285 273.296C93.1285 322.791 133.252 362.914 182.747 362.914H282.791C287.785 362.914 291.833 358.866 291.833 353.872V348.085C291.833 343.091 287.785 339.042 282.791 339.042H249.008V320.957H313.273C318.267 320.957 322.316 316.908 322.316 311.914V306.127C322.316 301.133 318.267 297.084 313.273 297.084H269.623V278.999H320.107C325.102 278.999 329.15 274.95 329.15 269.956V264.169C329.15 259.175 325.102 255.127 320.107 255.127H269.623V237.041H364.437C364.42 236.801 364.411 236.56 364.411 236.317C364.411 228.826 372.508 222.753 382.497 222.753C392.486 222.753 400.582 228.826 400.582 236.317C400.582 236.56 400.574 236.801 400.557 237.041H406.732C413.324 237.041 418.668 231.697 418.668 225.105Z" fill="#009DA4"/>
<path d="M409.656 309.932C409.656 324.4 397.72 335.769 382.528 335.769C367.336 335.769 355.399 324.4 355.399 309.932C355.399 295.463 382.528 263.427 382.528 263.427C382.528 263.427 409.656 296.497 409.656 309.932Z" fill="#009DA4"/>
</svg>
