<svg width="512" height="512" viewBox="0 0 512 512" fill="none" xmlns="http://www.w3.org/2000/svg">
<path fill-rule="evenodd" clip-rule="evenodd" d="M256.177 340.333C261.855 340.333 267.14 342.013 271.563 344.903L284.355 115L291.386 115.391L298.416 115L311.208 344.903C315.632 342.013 320.916 340.333 326.594 340.333C342.15 340.333 354.761 352.944 354.761 368.5C354.761 384.056 342.15 396.667 326.594 396.667C311.109 396.667 298.542 384.171 298.428 368.713L296.854 340.419H285.917L284.343 368.713C284.229 384.171 271.662 396.667 256.177 396.667C240.621 396.667 228.011 384.056 228.011 368.5C228.011 352.944 240.621 340.333 256.177 340.333ZM291.386 242.143L296.07 326.336H286.701L291.386 242.143ZM291.386 220.87C295.275 220.87 298.427 217.722 298.427 213.838C298.427 209.955 295.275 206.806 291.386 206.806C287.497 206.806 284.344 209.955 284.344 213.838C284.344 217.722 287.497 220.87 291.386 220.87ZM256.177 354.417C248.399 354.417 242.094 360.722 242.094 368.5C242.094 376.278 248.399 382.583 256.177 382.583C263.956 382.583 270.261 376.278 270.261 368.5C270.261 360.722 263.956 354.417 256.177 354.417ZM312.511 368.5C312.511 360.722 318.816 354.417 326.594 354.417C334.372 354.417 340.677 360.722 340.677 368.5C340.677 376.278 334.372 382.583 326.594 382.583C318.816 382.583 312.511 376.278 312.511 368.5Z" fill="#009DA4"/>
<path fill-rule="evenodd" clip-rule="evenodd" d="M199.844 116.644L189.179 123.042L192.802 129.08C189.179 123.042 189.169 123.048 189.169 123.048L189.159 123.055L189.136 123.068L189.084 123.1L188.954 123.181C188.856 123.244 188.736 123.322 188.595 123.417C188.312 123.608 187.945 123.866 187.505 124.199C186.626 124.865 185.456 125.829 184.088 127.145C181.347 129.78 177.831 133.808 174.261 139.646C167.105 151.352 159.884 170.086 158.042 199.027C157.481 207.848 162.583 215.281 169.864 218.665C166.636 221.856 164.635 226.286 164.635 231.185V379.06C164.635 388.782 172.517 396.664 182.239 396.664C191.962 396.664 199.844 388.782 199.844 379.06V231.185C199.844 224.892 196.542 219.372 191.577 216.258C196.604 212.397 199.844 206.325 199.844 199.497V116.644ZM172.097 199.922C173.761 173.769 180.069 157.491 185.76 147.853V199.497C185.76 203.386 182.608 206.539 178.719 206.539C174.715 206.539 171.88 203.343 172.097 199.922ZM185.76 231.789V231.185C185.76 229.24 184.184 227.664 182.239 227.664C180.294 227.664 178.719 229.24 178.719 231.185V238.83L185.76 231.789ZM185.76 251.705V259.955L178.719 266.997V258.747L185.76 251.705ZM185.76 288.122V279.872L178.719 286.914V295.164L185.76 288.122ZM185.76 308.039V379.06C185.76 381.004 184.184 382.58 182.239 382.58C180.294 382.58 178.719 381.004 178.719 379.06V315.08L185.76 308.039Z" fill="#009DA4"/>
</svg>
