<svg width="512" height="512" viewBox="0 0 512 512" fill="none" xmlns="http://www.w3.org/2000/svg">
<path d="M44.9869 268.213C44.5805 268.213 43.7678 268.213 43.3615 267.807C42.1424 267.4 41.3297 266.587 40.9233 265.368C33.6089 248.301 41.3297 229.202 52.3013 217.824C63.6794 205.634 79.5273 198.726 93.3435 193.037L184.774 153.214C190.869 131.677 209.156 112.984 230.286 106.482C252.636 99.9806 278.236 105.67 295.303 121.518C297.742 123.956 300.18 126.394 302.212 128.832C303.837 130.864 303.431 133.302 301.399 134.927C299.367 136.553 296.929 136.146 295.303 134.115C293.678 131.677 291.646 129.645 289.208 127.613C274.173 113.797 252.229 108.514 232.724 114.203C213.625 119.892 197.371 136.959 192.495 156.871C192.088 158.09 191.276 159.309 190.057 159.715L97.0007 200.351C83.9973 206.04 68.962 212.542 58.8031 223.513C50.6759 232.047 44.5805 245.457 47.425 257.648L242.071 171.906C244.102 171.093 246.947 171.906 247.76 173.938C248.572 175.97 247.76 178.814 245.728 179.627L46.6123 267.4C46.206 268.213 45.3933 268.213 44.9869 268.213Z" fill="#009DA4"/>
<path d="M293.677 218.641C273.359 218.641 256.698 201.98 256.698 181.662C256.698 161.344 273.359 144.684 293.677 144.684C313.995 144.684 330.655 161.344 330.655 181.662C330.655 201.98 313.995 218.641 293.677 218.641ZM293.677 153.217C277.829 153.217 265.232 165.814 265.232 181.662C265.232 197.51 277.829 210.107 293.677 210.107C309.525 210.107 322.122 197.51 322.122 181.662C322.122 165.814 309.525 153.217 293.677 153.217Z" fill="#009DA4"/>
<path d="M375.356 408.002C367.229 408.002 359.102 403.939 354.632 396.624L314.402 334.452C301.805 314.54 275.798 307.226 254.668 316.978L129.916 374.275H129.51C115.287 378.745 99.8454 382.808 84.8102 379.964C69.7749 377.119 53.5206 364.522 53.1143 347.049C53.1143 345.423 53.927 343.798 55.5524 342.985L253.855 253.993C265.639 248.71 278.237 246.678 290.427 248.71C292.865 249.116 294.491 251.148 294.085 253.586C293.678 256.024 291.646 257.65 289.208 257.243C279.049 255.618 268.078 257.244 257.919 261.713L61.6478 349.893C63.6796 360.865 75.0576 369.398 86.0293 371.836C99.0327 374.275 113.255 370.617 126.259 366.554L250.604 309.664C275.798 298.286 306.275 306.819 321.311 330.388L361.54 392.561C366.416 399.875 375.763 402.313 383.483 397.843C387.547 395.405 389.985 391.748 391.204 387.278C392.017 382.808 391.204 378.338 388.766 374.681L279.456 214.982C278.237 212.95 278.643 210.512 280.675 208.887C282.707 207.668 285.145 208.074 286.77 210.106L395.674 368.992C399.738 374.681 400.957 381.589 399.331 388.497C397.706 394.999 393.642 401.094 387.547 404.345C383.89 407.19 379.826 408.002 375.356 408.002Z" fill="#009DA4"/>
<path d="M423.713 319.821C420.055 319.821 415.992 318.602 412.741 316.57L344.473 273.496C342.441 272.277 342.035 269.433 343.254 267.401C344.473 265.369 347.317 264.963 349.349 266.182L417.617 309.256C423.306 312.913 430.214 311.288 434.278 306.005C436.31 303.161 436.716 299.91 436.31 296.659C435.497 293.408 433.872 290.563 431.027 288.938L358.695 242.207C358.289 241.8 357.883 241.394 357.476 240.988L322.123 191.006C320.904 188.974 321.311 186.536 323.342 184.91C325.374 183.691 327.812 184.098 329.438 186.129L363.978 235.705L435.091 281.624C439.967 284.874 443.218 289.344 444.031 295.033C445.25 300.722 444.031 306.411 440.78 310.881C436.716 316.57 430.214 319.821 423.713 319.821Z" fill="#009DA4"/>
<path d="M305.463 185.726C303.025 185.726 300.993 183.694 300.993 181.256C300.993 177.193 297.742 173.535 293.272 173.535C289.208 173.535 285.551 176.786 285.551 181.256C285.551 183.694 283.519 185.726 281.081 185.726C278.643 185.726 276.611 183.694 276.611 181.256C276.611 172.316 283.926 165.002 292.866 165.002C301.806 165.002 309.12 172.316 309.12 181.256C309.933 184.101 307.901 185.726 305.463 185.726Z" fill="#009DA4"/>
</svg>
