<svg width="512" height="512" viewBox="0 0 512 512" fill="none" xmlns="http://www.w3.org/2000/svg">
<path d="M263.483 108.161C262.481 107.159 261.293 106.364 259.984 105.821C258.676 105.279 257.273 105 255.857 105C254.441 105 253.038 105.279 251.73 105.821C250.421 106.364 249.233 107.159 248.232 108.161C244.139 112.253 148 209.423 148 299.143C148 327.748 159.363 355.182 179.591 375.409C199.818 395.637 227.252 407 255.857 407C284.462 407 311.896 395.637 332.123 375.409C352.351 355.182 363.714 327.748 363.714 299.143C363.714 209.423 267.575 112.253 263.483 108.161ZM255.857 385.429C232.981 385.402 211.049 376.303 194.873 360.127C178.697 343.951 169.598 322.019 169.571 299.143C169.571 232.191 233.475 156.112 255.857 131.522C278.25 156.09 342.143 232.096 342.143 299.143C342.116 322.019 333.017 343.951 316.841 360.127C300.665 376.303 278.733 385.402 255.857 385.429Z" fill="#009DA4"/>
<path d="M255.857 342.285C244.419 342.272 233.452 337.723 225.364 329.635C217.276 321.546 212.727 310.58 212.714 299.142C212.714 296.282 211.578 293.538 209.555 291.515C207.532 289.493 204.789 288.356 201.928 288.356C199.068 288.356 196.324 289.493 194.302 291.515C192.279 293.538 191.143 296.282 191.143 299.142C191.161 316.3 197.986 332.749 210.118 344.881C222.25 357.013 238.699 363.838 255.857 363.856C258.717 363.856 261.461 362.72 263.483 360.697C265.506 358.675 266.642 355.931 266.642 353.071C266.642 350.21 265.506 347.467 263.483 345.444C261.461 343.421 258.717 342.285 255.857 342.285Z" fill="#009DA4"/>
</svg>
