<svg width="512" height="512" viewBox="0 0 512 512" fill="none" xmlns="http://www.w3.org/2000/svg">
<path d="M99 247.911C99 327.268 163.553 391.822 242.911 391.822C322.268 391.822 386.822 327.268 386.822 247.911C386.822 168.553 322.268 104 242.911 104C163.553 104 99 168.553 99 247.911ZM111.208 247.911C111.208 175.272 170.272 116.208 242.911 116.208C315.549 116.208 374.614 175.272 374.614 247.911C374.614 320.549 315.549 379.614 242.911 379.614C170.272 379.614 111.208 320.549 111.208 247.911Z" fill="#009DA4" stroke="#009DA4" stroke-width="2"/>
<path d="M267.431 247.911C267.431 251.271 270.175 254.015 273.535 254.015C276.894 254.015 279.639 251.271 279.639 247.911C279.639 227.658 263.164 211.184 242.911 211.184C239.551 211.184 236.807 213.928 236.807 217.288C236.807 220.647 239.551 223.392 242.911 223.392C256.445 223.392 267.431 234.377 267.431 247.911Z" fill="#009DA4" stroke="#009DA4" stroke-width="2"/>
<path d="M311.197 309.238L311.198 309.238C317.659 308.93 322.273 308.73 326.878 313.336C331.483 317.94 331.284 322.553 330.976 329.013C330.618 336.166 330.167 345.462 338.617 353.912C347.038 362.383 356.351 361.914 363.437 361.557L363.514 361.553C369.975 361.246 374.588 361.046 379.194 365.651C383.799 370.256 383.599 374.869 383.292 381.329C382.934 388.481 382.483 397.777 390.933 406.228C392.157 407.452 393.695 408.001 395.264 408.001C396.856 408.001 398.376 407.386 399.576 406.245L399.595 406.228L399.613 406.209C401.915 403.785 401.928 399.95 399.544 397.566C394.938 392.96 395.138 388.347 395.446 381.886C395.804 374.733 396.254 365.438 387.805 356.989C379.355 348.54 370.061 348.99 362.908 349.348C356.447 349.655 351.834 349.856 347.228 345.25C342.623 340.645 342.823 336.031 343.131 329.57L343.135 329.479C343.492 322.345 343.955 313.088 335.489 304.674C327.02 296.205 317.761 296.671 310.673 297.028L310.594 297.032C310.594 297.032 310.593 297.032 310.592 297.032C305.409 297.27 301.487 297.421 297.755 295.174C308.737 282.457 315.417 265.977 315.417 247.961C315.417 208.006 282.917 175.506 242.962 175.506C203.007 175.506 170.506 208.006 170.506 247.961C170.506 287.916 203.007 320.417 242.962 320.417C260.42 320.417 276.427 314.209 288.962 303.865C296.694 309.869 304.792 309.536 311.197 309.238ZM182.663 247.91C182.663 214.674 209.675 187.663 242.911 187.663C276.147 187.663 303.158 214.674 303.158 247.91C303.158 281.146 276.147 308.158 242.911 308.158C209.675 308.158 182.663 281.096 182.663 247.91Z" fill="#009DA4" stroke="#009DA4" stroke-width="2"/>
</svg>
