<svg width="512" height="512" viewBox="0 0 512 512" fill="none" xmlns="http://www.w3.org/2000/svg">
<g clip-path="url(#clip0_53_3984)">
<path d="M312.876 185.889C305.106 185.889 298.782 192.212 298.782 199.983C298.782 207.754 305.106 214.077 312.876 214.077C320.647 214.077 326.971 207.754 326.971 199.983C326.971 192.212 320.647 185.889 312.876 185.889ZM312.876 204.681C310.283 204.681 308.178 202.572 308.178 199.983C308.178 197.394 310.283 195.285 312.876 195.285C315.47 195.285 317.575 197.394 317.575 199.983C317.575 202.572 315.47 204.681 312.876 204.681Z" fill="#009DA4"/>
<path d="M375.366 365.519C392.669 343.913 402.14 317.167 402.14 289.246C402.14 246.296 380.223 207.288 343.362 184.808L341.417 183.718C335.827 173.946 325.383 167.312 313.389 167.125L333.384 132.49L292.698 109L267.949 151.875C252.793 126.651 225.178 110.719 195.425 110.719C148.796 110.719 110.859 148.656 110.859 195.285C110.859 241.913 148.796 279.85 195.425 279.85C208.885 279.85 222.208 276.59 234.104 270.463L252.892 281.311L262.288 265.037L270.683 269.885L292.586 225.813C298.181 230.215 305.219 232.869 312.876 232.869C315.193 232.869 317.448 232.625 319.628 232.165C333.243 246.503 341.065 267.212 341.065 289.246C341.065 294.118 340.581 298.943 339.829 303.693C338.706 303.481 337.555 303.34 336.367 303.34C331.641 303.34 327.37 305.149 324.067 308.039H214.217C206.446 308.039 200.123 314.362 200.123 322.133C200.123 329.903 206.446 336.227 214.217 336.227H324.067C324.81 336.875 325.58 337.486 326.416 338.012C314.854 354.625 297.819 364.415 279.99 364.415H190.727C180.363 364.415 171.934 372.844 171.934 383.208C171.934 393.572 180.363 402 190.727 402H369.253C379.617 402 388.046 393.572 388.046 383.208C388.046 374.995 382.718 368.071 375.366 365.519ZM318.242 326.831H214.217C211.624 326.831 209.519 324.726 209.519 322.133C209.519 319.539 211.624 317.435 214.217 317.435H318.242C317.847 318.947 317.575 320.503 317.575 322.133C317.575 323.763 317.847 325.318 318.242 326.831ZM296.142 121.835L320.548 135.929L315.85 144.062L291.444 129.967L296.142 121.835ZM195.425 270.454C153.978 270.454 120.256 236.731 120.256 195.285C120.256 153.838 153.978 120.116 195.425 120.116C223.66 120.116 249.73 136.254 262.471 161.36L259.816 165.959L251.924 161.402L205.06 231.996L213.461 236.844L204.064 253.113L224.158 264.718C215.1 268.467 205.309 270.454 195.425 270.454ZM249.453 268.476L216.904 249.684L221.602 241.551L254.151 260.344L249.453 268.476ZM266.723 256.745L218.426 228.862L254.874 173.956L281.747 189.469C280.624 192.776 279.99 196.304 279.99 199.983C279.99 206.851 282.114 213.227 285.726 218.507L266.723 256.745ZM267.954 170.662L286.746 138.114L311.152 152.208L301.319 169.239C295.104 171.578 289.781 175.736 286.008 181.083L267.954 170.662ZM312.876 223.473C299.924 223.473 289.386 212.935 289.386 199.983C289.386 187.03 299.924 176.493 312.876 176.493C325.829 176.493 336.367 187.03 336.367 199.983C336.367 212.935 325.829 223.473 312.876 223.473ZM336.367 312.737C341.549 312.737 345.763 316.951 345.763 322.133C345.763 327.315 341.549 331.529 336.367 331.529C331.185 331.529 326.971 327.315 326.971 322.133C326.971 316.951 331.185 312.737 336.367 312.737ZM335.794 340.869C335.991 340.873 336.17 340.925 336.367 340.925C346.731 340.925 355.159 332.497 355.159 322.133C355.159 316.495 352.613 311.492 348.671 308.043C349.832 301.908 350.461 295.598 350.461 289.246C350.461 266.244 342.643 244.502 328.996 228.618C333.745 225.935 337.748 222.101 340.656 217.502C361.84 235.326 373.951 261.274 373.951 289.246C373.951 304.867 370.043 320.343 362.643 333.986L370.902 338.463C379.044 323.448 383.348 306.427 383.348 289.246C383.348 257.553 369.22 228.199 344.588 208.557C345.331 205.818 345.763 202.952 345.763 199.983C345.763 199.175 345.697 198.381 345.641 197.587C375.276 218.766 392.744 252.427 392.744 289.246C392.744 317.125 382.483 343.711 363.926 364.415H312.238C321.342 358.797 329.409 350.791 335.794 340.869ZM369.253 392.604H190.727C185.545 392.604 181.33 388.39 181.33 383.208C181.33 378.026 185.545 373.812 190.727 373.812H369.253C374.435 373.812 378.65 378.026 378.65 383.208C378.65 388.39 374.435 392.604 369.253 392.604Z" fill="#009DA4"/>
<path d="M167.236 171.795C154.284 171.795 143.746 182.333 143.746 195.285C143.746 208.238 154.284 218.776 167.236 218.776C180.189 218.776 190.727 208.238 190.727 195.285C190.727 182.333 180.189 171.795 167.236 171.795ZM167.236 209.379C159.466 209.379 153.142 203.056 153.142 195.285C153.142 187.515 159.466 181.191 167.236 181.191C175.007 181.191 181.331 187.515 181.331 195.285C181.331 203.056 175.007 209.379 167.236 209.379Z" fill="#009DA4"/>
<path d="M181.331 134.209C181.331 141.98 175.007 148.303 167.236 148.303V157.699C180.189 157.699 190.727 147.162 190.727 134.209H181.331Z" fill="#009DA4"/>
<path d="M167.237 232.869H157.841C157.841 245.822 168.379 256.36 181.331 256.36V246.963C173.561 246.963 167.237 240.64 167.237 232.869Z" fill="#009DA4"/>
<path d="M153.142 157.701H143.746V167.097H153.142V157.701Z" fill="#009DA4"/>
<path d="M228.311 143.605H218.915V153.002H228.311V143.605Z" fill="#009DA4"/>
<path d="M223.614 181.191H214.218V190.588H223.614V181.191Z" fill="#009DA4"/>
<path d="M195.425 228.172H186.029V237.568H195.425V228.172Z" fill="#009DA4"/>
<path d="M171.934 190.586H162.538V199.982H171.934V190.586Z" fill="#009DA4"/>
</g>
<defs>
<clipPath id="clip0_53_3984">
<rect width="293" height="293" fill="white" transform="translate(110 109)"/>
</clipPath>
</defs>
</svg>
