<svg width="512" height="512" viewBox="0 0 512 512" fill="none" xmlns="http://www.w3.org/2000/svg">
<g clip-path="url(#clip0_8_254)">
<path d="M389.612 178.186C386.536 181.262 383.338 183.76 379.968 185.744L325.251 131.025C327.235 127.658 329.73 124.459 332.809 121.381C338.692 115.498 338.692 105.925 332.806 100.04C326.924 94.1572 317.351 94.1548 311.466 100.04C286.975 124.53 286.618 154.134 290.903 180.863C259.788 174.449 225.392 171.721 197.933 199.177C185.521 211.591 178.385 226.17 176.117 243.752C175.784 246.331 177.606 248.692 180.185 249.025C182.756 249.358 185.125 247.536 185.455 244.957C187.449 229.518 193.706 216.722 204.592 205.836C229.891 180.537 261.85 184.179 292.716 190.872C293.637 195.484 294.452 199.101 295.351 203.076C264.684 196.101 234.982 191.171 212.583 213.893C162.515 264.032 247.592 349.57 191.624 405.538C189.413 407.749 185.813 407.749 183.601 405.538C181.387 403.326 181.387 399.726 183.601 397.515C219.09 362.023 187.38 311.039 184.894 262.227C184.76 259.631 182.568 257.628 179.952 257.765C177.354 257.898 175.355 260.111 175.488 262.707C176.004 272.832 177.724 282.978 179.617 292.147C152.888 287.864 123.286 288.221 98.796 312.709C92.8987 318.604 92.8962 328.153 98.796 334.05C104.693 339.95 114.24 339.95 120.139 334.05C123.215 330.974 126.414 328.479 129.781 326.495L184.5 381.211C182.514 384.581 180.018 387.78 176.942 390.856C171.057 396.738 171.057 406.314 176.942 412.197C182.825 418.082 192.398 418.082 198.283 412.197C222.774 387.706 223.131 358.102 218.845 331.374C254.361 338.694 286.098 338.777 311.816 313.06C339.274 285.601 336.541 251.199 330.127 220.084C339.061 221.505 348.035 222.364 357.069 222.08C359.668 221.997 361.708 219.822 361.627 217.224C361.544 214.625 359.374 212.576 356.773 212.666C348.333 212.931 339.118 212.14 327.965 210.173C327.059 206.198 326.177 202.454 325.185 198.148C351.304 203.406 376.164 204.952 396.271 184.845C398.482 182.634 402.08 182.634 404.294 184.845C406.513 187.062 406.513 190.652 404.294 192.868C395.485 201.68 385.534 207.401 373.877 210.357C371.357 210.996 369.831 213.555 370.47 216.078C371.109 218.598 373.671 220.124 376.191 219.484C389.538 216.1 400.909 209.573 410.953 199.527C413.804 196.676 415.373 192.888 415.373 188.857C415.373 175.453 399.063 168.735 389.612 178.186ZM113.48 327.391C111.262 329.61 107.674 329.61 105.455 327.391C103.239 325.175 103.236 321.587 105.455 319.368C120.705 304.118 138.583 299.531 156.363 299.531C164.962 299.531 173.541 300.604 181.787 302.063C182.685 306.016 183.601 309.903 184.566 314.091C158.447 308.83 133.587 307.285 113.48 327.391ZM139.031 322.425C151.808 318.499 167.09 320 186.814 324.178C190.995 343.903 192.496 359.185 188.568 371.961L139.031 322.425ZM212.039 298.956C208.449 283.451 205.273 268.992 205.412 255.909L255.084 305.58C242.001 305.72 227.542 302.546 212.039 298.956ZM267.162 304.344L206.649 243.83C208.146 236.689 211.102 230.057 216.102 224.003L286.987 294.89C280.936 299.894 274.306 302.847 267.162 304.344ZM293.649 288.234L222.761 217.346C228.813 212.345 235.445 209.389 242.586 207.893L303.1 268.406C301.603 275.548 298.65 282.18 293.649 288.234ZM297.712 213.281C301.302 228.786 304.476 243.245 304.339 256.328L254.667 206.656C267.748 206.517 282.209 209.691 297.712 213.281ZM305.157 306.401C279.858 331.699 247.901 328.058 217.033 321.364C216.369 318.053 215.647 314.642 214.398 309.161C245.459 316.226 274.549 320.96 297.134 298.375C346.869 248.643 262.477 162.346 318.127 106.699C320.338 104.487 323.936 104.485 326.15 106.699C328.361 108.91 328.361 112.51 326.15 114.722C276.131 164.741 361.108 250.452 305.157 306.401ZM322.937 188.058C318.756 168.334 317.255 153.052 321.183 140.275L370.72 189.812C357.943 193.74 342.661 192.239 322.937 188.058Z" fill="#009DA4"/>
</g>
<defs>
<clipPath id="clip0_8_254">
<rect width="321" height="321" fill="white" transform="translate(95 95)"/>
</clipPath>
</defs>
</svg>
