<svg width="512" height="512" viewBox="0 0 512 512" fill="none" xmlns="http://www.w3.org/2000/svg">
<path fill-rule="evenodd" clip-rule="evenodd" d="M137.985 324.792C25.3772 277.296 69.8183 116.982 147.988 90.494C180.416 79.5059 216.198 115.96 215.969 138.594C215.869 148.381 210.819 157.923 205.558 167.865C198.651 180.917 191.379 194.658 194.466 210.544C199.907 238.531 206.001 285.752 190.3 308.167C174.598 330.583 158.808 333.574 137.985 324.792ZM146.041 305.691C154.154 309.112 158.139 308.887 160.325 308.258C162.569 307.612 166.949 305.37 173.321 296.274C177.184 290.758 179.814 279.119 179.582 261.72C179.366 245.384 176.732 227.95 174.118 214.499C169.926 192.937 178.534 174.925 184.677 163.043C185.734 160.996 186.7 159.173 187.589 157.492C189.64 153.617 191.29 150.501 192.747 147.161C194.689 142.709 195.222 140.071 195.24 138.385C195.245 137.847 194.881 135.105 192.193 130.592C189.668 126.355 185.835 121.841 181.129 118.006C171.145 109.871 161.484 107.809 154.641 110.128C125.515 119.997 98.1334 158.002 91.9805 202.598C86.0774 245.384 100.699 286.566 146.041 305.691Z" fill="#009DA4"/>
<path fill-rule="evenodd" clip-rule="evenodd" d="M363.939 90.494C442.109 116.982 486.55 277.296 373.943 324.792C353.119 333.574 337.329 330.583 321.628 308.167C305.927 285.752 312.021 238.531 317.46 210.544C320.548 194.658 313.277 180.917 306.369 167.865C301.107 157.923 296.058 148.381 295.959 138.594C295.73 115.96 331.512 79.5059 363.939 90.494ZM351.602 308.258C353.789 308.887 357.774 309.112 365.886 305.691C411.229 286.566 425.85 245.384 419.947 202.598C413.794 158.002 386.413 119.997 357.287 110.128C350.443 107.809 340.782 109.871 330.798 118.006C326.091 121.841 322.258 126.355 319.734 130.592C317.047 135.105 316.682 137.847 316.688 138.385C316.705 140.071 317.239 142.709 319.181 147.161C320.638 150.501 322.287 153.617 324.338 157.492C325.228 159.173 326.193 160.996 327.251 163.043C333.392 174.925 342.001 192.937 337.81 214.499C335.195 227.95 332.562 245.384 332.345 261.72C332.113 279.119 334.744 290.758 338.607 296.274C344.978 305.37 349.359 307.612 351.602 308.258Z" fill="#009DA4"/>
<path d="M304.547 242.147C305.258 252.487 305.27 252.486 305.27 252.486L305.283 252.485L305.305 252.484L305.346 252.481L305.403 252.476L305.433 252.472C305.433 252.472 305.327 252.485 305.179 252.509C304.882 252.556 304.36 252.656 303.693 252.846C302.334 253.23 300.543 253.936 298.789 255.185C295.786 257.323 291.371 262.073 291.371 274.057V423.998C291.371 423.998 291.371 424 281.006 424C270.641 424 270.641 423.994 270.641 423.994V274.057C270.641 255.749 277.996 244.543 286.763 238.299C290.895 235.358 294.989 233.765 298.044 232.9C299.584 232.464 300.902 232.2 301.891 232.041C302.387 231.961 302.805 231.907 303.132 231.871C303.296 231.852 303.438 231.839 303.555 231.828L303.713 231.815L303.78 231.81L303.809 231.808L303.822 231.807C303.822 231.807 303.836 231.806 304.547 242.147Z" fill="#009DA4"/>
<path d="M207.367 242.147C206.656 252.487 206.642 252.486 206.642 252.486L206.631 252.485L206.607 252.484L206.568 252.481L206.51 252.476L206.478 252.472C206.478 252.472 206.586 252.485 206.734 252.509C207.032 252.556 207.553 252.656 208.22 252.846C209.579 253.23 211.37 253.936 213.125 255.185C216.127 257.323 220.543 262.073 220.543 274.057V423.998C220.543 423.998 220.543 424 230.908 424C241.273 424 241.273 423.994 241.273 423.994V274.057C241.273 255.749 233.917 244.543 225.149 238.299C221.019 235.358 216.924 233.765 213.869 232.9C212.33 232.464 211.011 232.2 210.022 232.041C209.526 231.961 209.108 231.907 208.781 231.871C208.617 231.852 208.476 231.839 208.358 231.828L208.199 231.815L208.134 231.81L208.105 231.808L208.09 231.807C208.09 231.807 208.077 231.806 207.367 242.147Z" fill="#009DA4"/>
</svg>
