<svg width="512" height="512" viewBox="0 0 512 512" fill="none" xmlns="http://www.w3.org/2000/svg">
<path fill-rule="evenodd" clip-rule="evenodd" d="M307.371 246.084C317.959 246.084 328.301 243.206 337.044 237.825C345.922 243.196 356.4 246.011 367.092 245.9L401.055 234.76C410.625 227.649 417.194 217.791 419.666 206.838C422.136 195.883 420.356 184.496 414.625 174.583C408.894 164.669 399.558 156.83 388.181 152.379C385.583 141.774 379.04 132.287 369.637 125.495L336.485 115.038H332.752C325.378 105.341 314.308 98.4235 301.645 95.6015L230.569 92C218.754 92.8848 207.613 97.3262 198.939 104.609C194.841 103.739 190.646 103.287 186.435 103.264C176.239 103.283 166.267 105.961 157.723 110.975C149.18 115.989 142.428 123.126 138.285 131.522L111.279 148.764C104.559 156.97 100.941 166.906 100.959 177.104C100.893 181.37 101.521 185.62 102.825 189.72C95.7401 198.006 91.9302 208.189 92.001 218.651C91.9841 230.783 97.1268 242.461 106.371 251.282C107.117 259.968 110.485 268.306 116.11 275.391C121.735 282.477 129.403 288.042 138.285 291.482C148.518 297.264 157.184 305.041 163.643 314.238C170.103 323.437 174.192 333.824 175.611 344.634H245.339V294.173C245.326 285.213 248.099 276.43 253.345 268.819C258.589 261.208 266.096 255.074 275.013 251.113C280.027 249.384 281.261 247.057 282.772 244.205C283.78 242.304 284.911 240.17 287.366 237.825C289.499 239.137 291.152 240.302 292.585 241.311C297.028 244.438 299.365 246.084 307.371 246.084ZM347.986 222.997C352.855 225.63 358.47 227.217 364.337 227.528L392.238 218.377C397.333 213.943 400.568 208.446 401.848 202.767C403.287 196.391 402.295 189.693 398.813 183.67C395.298 177.59 389.324 172.385 381.526 169.334L372.697 165.879L370.442 156.671C369.12 151.276 365.95 146.065 361.019 141.874L333.673 133.248H323.696L318.214 126.039C313.869 120.326 307.167 115.818 299.034 113.703L230.897 110.251C223.119 111.035 216.048 114.039 210.684 118.543L203.86 124.273L195.143 122.421C192.288 121.814 189.355 121.495 186.402 121.474C179.37 121.499 172.617 123.358 166.968 126.673C161.311 129.992 157.134 134.542 154.663 139.55L152.409 144.121L123.866 162.343C120.748 166.915 119.214 171.998 119.223 177.019L119.223 177.177L119.221 177.336C119.185 179.609 119.519 181.895 120.23 184.131L123.31 193.813L116.707 201.536C112.346 206.636 110.225 212.605 110.264 218.474L110.265 218.548L110.265 218.622C110.255 225.464 113.138 232.441 118.979 238.014L123.977 242.783L124.568 249.666C124.995 254.636 126.932 259.596 130.414 263.982C133.913 268.389 138.862 272.065 144.883 274.398L146.117 274.876L147.27 275.527C148.605 276.281 149.92 277.065 151.214 277.877L151.158 277.919C175.985 293.066 186.519 315.11 190.095 326.383H195.684V259.778L175.564 241.893L161.907 255.551C158.341 259.117 152.558 259.117 148.992 255.551C145.426 251.985 145.426 246.203 148.992 242.637L165.355 226.273L160.446 199.271L138.201 188.149C133.69 185.894 131.862 180.408 134.117 175.897C136.373 171.387 141.858 169.557 146.37 171.813L168.074 182.666L194.661 165.748L186.392 143.695C184.621 138.973 187.014 133.709 191.736 131.938C196.458 130.167 201.722 132.559 203.493 137.282L212.379 160.978H222.209L226.905 151.586L219.46 134.212C217.473 129.577 219.621 124.208 224.256 122.222C228.891 120.235 234.26 122.382 236.247 127.018L242.659 141.978L268.118 146.607L268.223 146.522L284.678 133.358C288.617 130.207 294.364 130.845 297.514 134.784C300.665 138.722 300.026 144.468 296.088 147.619L285.088 156.419L297.28 172.095L301.962 162.733C303.508 159.639 306.671 157.685 310.13 157.685H329.876C334.919 157.685 339.008 161.773 339.008 166.817C339.008 171.861 334.919 175.949 329.876 175.949H315.773L313.325 180.845L328.566 184.233C329.295 184.395 330.001 184.645 330.669 184.98L343.833 191.562C348.344 193.816 350.172 199.302 347.918 203.813C345.662 208.324 340.177 210.153 335.665 207.897L323.507 201.818L294.985 195.479C292.911 195.018 291.061 193.848 289.757 192.172L268.862 165.306L243.536 160.701C243.169 161.004 242.775 161.279 242.355 161.526L236.985 172.265V177.431H247.6C249.017 177.431 250.415 177.762 251.684 178.395L278.012 191.56C282.523 193.816 284.351 199.3 282.096 203.811C279.84 208.323 274.355 210.151 269.844 207.895L245.444 195.695H236.985V209.603C236.985 214.646 232.897 218.735 227.853 218.735C222.809 218.735 218.721 214.646 218.721 209.603V186.633V186.563V186.494V179.242H207.475L178.697 197.555L183.617 224.617L210.883 248.852C212.832 250.585 213.948 253.069 213.948 255.677V326.383H227.076V293.818C227.076 269.146 240.858 254.002 248.385 246.833C254.406 241.097 263.45 236.262 267.22 234.561C267.969 232.885 270.523 228.533 274.746 224.538C278.97 220.543 283.355 216.381 285.02 214.8C296.324 221.261 305.103 227.748 305.103 227.748C305.103 227.748 316.803 227.106 322.118 224.966C326.37 223.254 333.782 218.497 336.958 216.333L347.986 222.997Z" fill="#009DA4"/>
<path d="M174.188 384.222H247.243V365.958H174.188V384.222Z" fill="#009DA4"/>
<path d="M247.243 420.75H174.188V402.486H247.243V420.75Z" fill="#009DA4"/>
</svg>
