<svg width="512" height="512" viewBox="0 0 512 512" fill="none" xmlns="http://www.w3.org/2000/svg">
<path d="M362.832 368.878C337.119 332.833 315.086 300.019 295.53 268.691C312.279 241.201 328.147 213.561 343.134 185.772C343.557 185.129 343.817 184.392 343.889 183.626C343.889 183.508 343.889 183.39 343.889 183.248C343.889 183.107 343.889 182.942 343.889 182.8C343.834 182.048 343.6 181.32 343.205 180.677C341.058 176.313 321.597 136.87 314.402 122.197C309.448 112.077 285.362 105 255.851 105C226.34 105 202.632 112.077 197.348 122.079C189.799 136.28 170.62 176.242 168.568 180.701C168.329 181.112 168.154 181.558 168.049 182.022C168.028 182.281 168.028 182.541 168.049 182.8C168.049 182.942 168.049 183.107 168.049 183.248C168.049 183.39 168.049 183.484 168.049 183.602C168.129 184.371 168.396 185.108 168.827 185.749C183.524 213.514 199.518 241.351 216.173 268.668C196.168 300.797 174.23 333.328 148.87 368.878C148.501 369.399 148.241 369.988 148.107 370.612C147.972 371.235 147.965 371.879 148.086 372.506C148.207 373.132 148.454 373.727 148.812 374.255C149.17 374.783 149.631 375.233 150.168 375.578C166.067 385.8 181.904 396.023 197.678 406.245C198.69 406.898 199.913 407.14 201.097 406.921C202.281 406.702 203.337 406.038 204.047 405.066C221.992 380.658 239.291 355.959 255.946 330.969C272.459 355.833 289.868 380.721 307.844 405.066C308.554 406.038 309.61 406.702 310.794 406.921C311.978 407.14 313.201 406.898 314.213 406.245C329.94 396.054 345.776 385.832 361.723 375.578C362.26 375.233 362.721 374.783 363.079 374.255C363.437 373.727 363.684 373.132 363.805 372.506C363.926 371.879 363.919 371.235 363.785 370.612C363.65 369.988 363.39 369.399 363.021 368.878H362.832ZM205.722 126.467C207.916 122.268 224.877 114.436 255.851 114.436C286.825 114.436 303.951 122.315 305.933 126.349C310.344 135.337 319.379 153.666 326.197 167.514C310.84 161.121 286.683 157.629 255.851 157.629C222.66 157.629 200.273 160.201 186.072 166.051C192.748 152.322 201.335 134.841 205.722 126.467ZM255.851 201.318C249.671 190.207 243.632 178.978 237.569 167.372C243.844 167.136 250.048 167.065 255.828 167.065C262.338 167.065 268.401 167.215 274.016 167.514C268.055 178.947 262 190.215 255.851 201.318ZM178.004 183.248C185.081 173.293 205.675 169.377 227.213 167.891C234.927 182.706 242.546 196.86 250.449 210.967C241.249 227.267 231.742 243.403 221.764 259.633C206.477 234.439 191.781 208.796 178.004 183.248ZM199.07 395.842C185.907 387.334 172.696 378.818 159.439 370.294C184.255 335.381 205.817 303.157 225.514 271.499L225.679 271.239C237.71 251.895 249.034 232.764 259.956 213.326L260.121 213.019C268.377 198.322 276.398 183.461 284.348 168.198C313.317 170.793 328.603 177.209 333.698 183.343C293.692 257.159 248.704 328.164 199.046 395.865L199.07 395.842ZM312.656 395.842C294.963 371.686 277.79 347.01 261.513 322.406C271.279 307.56 280.786 292.62 290.033 277.585C308.339 306.719 328.768 337.126 352.287 370.247C339.014 378.818 325.804 387.357 312.656 395.865V395.842Z" fill="#009DA4"/>
</svg>
