<svg width="512" height="512" viewBox="0 0 512 512" fill="none" xmlns="http://www.w3.org/2000/svg">
<path d="M441.007 191.867C424.472 177.302 403.615 170.043 382.77 170.043C361.282 170.043 339.811 177.75 323.076 193.1C312.421 202.876 304.749 214.623 300.055 227.23C295.302 239.991 282.948 248.306 269.333 248.306H243.746C229.877 248.052 217.346 239.272 213.154 226.01C208.153 210.194 198.606 195.523 184.501 184.066C168.456 171.028 148.731 164.506 129.006 164.506C109.364 164.506 89.7331 170.969 73.7173 183.912C30.7708 218.621 29.7801 283.05 70.7395 319.132C87.2741 333.697 108.131 340.956 128.976 340.956C150.464 340.956 171.935 333.249 188.67 317.9C199.326 308.123 206.997 296.376 211.691 283.769C216.444 271.008 228.798 262.694 242.414 262.694H267.994C281.863 262.947 294.4 271.728 298.593 284.99C303.593 300.805 313.14 315.476 327.245 326.934C343.291 339.972 363.015 346.494 382.74 346.494C402.383 346.494 422.013 340.031 438.029 327.087C480.975 292.378 481.966 227.95 441.007 191.867ZM178.091 310.594C164.528 322.157 147.103 328.52 129.018 328.52C110.932 328.52 93.5071 322.151 79.9444 310.594C62.9674 296.123 53.2259 275.048 53.2259 252.781C53.2259 230.515 62.9615 209.446 79.9444 194.969C93.5071 183.405 110.932 177.042 129.018 177.042C147.103 177.042 164.528 183.411 178.091 194.969C195.068 209.44 204.81 230.515 204.81 252.781C204.81 275.048 195.074 296.123 178.091 310.594ZM431.808 316.031C418.245 327.594 400.82 333.957 382.734 333.957C364.649 333.957 347.224 327.588 333.661 316.031C316.684 301.56 306.943 280.485 306.943 258.218C306.943 235.952 316.678 214.882 333.661 200.406C347.224 188.842 364.649 182.479 382.734 182.479C400.82 182.479 418.245 188.848 431.808 200.406C448.785 214.877 458.526 235.952 458.526 258.218C458.526 280.485 448.785 301.554 431.808 316.031Z" fill="#009DA4"/>
</svg>
