<svg width="512" height="512" viewBox="0 0 512 512" fill="none" xmlns="http://www.w3.org/2000/svg">
<g clip-path="url(#clip0_8_252)">
<path d="M248.669 400.183C248.047 400.183 247.42 400.067 246.833 399.839C184.085 375.363 187.389 335.473 188.097 330.338C188.31 310.582 204.443 294.58 224.244 294.58C233.411 294.58 242.047 297.995 248.669 304.106C255.297 297.995 263.933 294.58 273.095 294.58C292.901 294.58 309.034 310.592 309.242 330.348C309.368 331.284 309.581 333.414 309.444 336.419L299.336 335.953C299.463 333.226 299.204 331.597 299.199 331.582C299.154 331.314 299.129 331.005 299.129 330.732C299.129 316.38 287.452 304.698 273.095 304.698C265.086 304.698 257.639 308.326 252.651 314.655C251.528 316.086 249.732 316.794 247.951 316.531C246.686 316.354 245.502 315.697 244.683 314.655C239.7 308.331 232.248 304.698 224.239 304.698C209.886 304.698 198.205 316.375 198.205 330.732C198.205 331.031 198.18 331.324 198.124 331.618C197.896 333.044 193.014 367.208 248.659 389.686C259.384 385.35 268.592 380.261 276.059 374.534L282.216 382.568C273.57 389.195 262.901 395.003 250.496 399.844C249.919 400.067 249.297 400.183 248.669 400.183Z" fill="#009DA4"/>
<path d="M255.828 371.838C254.791 371.838 253.764 371.519 252.889 370.892L227.538 352.78C226.207 351.834 225.418 350.302 225.418 348.667C225.418 347.033 226.207 345.5 227.538 344.549L252.889 326.443C254.432 325.345 256.466 325.198 258.145 326.063C259.83 326.929 260.887 328.669 260.887 330.561V336.364H292.046C294.839 336.364 297.105 338.63 297.105 341.423V350.969C297.105 353.762 294.839 356.028 292.046 356.028H278.832V359.529C278.832 362.322 276.565 364.588 273.773 364.588H260.887V366.774C260.887 368.671 259.83 370.406 258.145 371.271C257.417 371.651 256.617 371.838 255.828 371.838ZM239.184 348.667L251.285 357.308C252.11 355.629 253.835 354.47 255.833 354.47H268.719V350.969C268.719 349.017 269.821 347.327 271.44 346.482H255.833C253.041 346.482 250.774 344.215 250.774 341.423V340.386L239.184 348.667Z" fill="#009DA4"/>
<path d="M309.99 385.006C309.201 385.006 308.407 384.819 307.673 384.445C305.989 383.58 304.931 381.839 304.931 379.947V374.145H273.772C270.98 374.145 268.713 371.878 268.713 369.085V350.974C268.713 348.181 270.98 345.915 273.772 345.915H304.931V343.729C304.931 341.832 305.989 340.097 307.673 339.232C309.358 338.367 311.387 338.518 312.93 339.611L338.281 357.718C339.611 358.669 340.401 360.202 340.401 361.836C340.401 363.47 339.611 365.003 338.281 365.949L312.93 384.06C312.055 384.688 311.022 385.006 309.99 385.006ZM278.832 364.026H309.99C312.783 364.026 315.049 366.293 315.049 369.085V370.117L326.64 361.841L314.539 353.2C313.714 354.885 311.989 356.038 309.995 356.038H278.837L278.832 364.026Z" fill="#009DA4"/>
<path d="M114.118 400.184H104V300.318C104.45 276.505 123.017 256.941 147.194 254.71C169.763 252.6 177.503 244.921 179.431 242.467V224.543C175.186 224.244 169.399 222.949 164.643 218.644C158.694 213.266 156.048 204.888 156.776 193.748V190.283H153.225C150.968 190.283 148.909 189.134 147.721 187.212C146.547 185.31 146.441 182.982 147.432 180.989L159.028 155.977C164.871 129.943 186.812 111.816 212.568 111.816C235.678 111.816 256.491 126.963 264.342 149.512L254.786 152.84C248.346 134.355 231.383 121.935 212.568 121.935C191.436 121.935 173.441 137.036 168.797 158.663C168.716 159.033 168.599 159.387 168.443 159.726L158.972 180.165H161.83C164.623 180.165 166.889 182.431 166.889 185.224V194.077C166.363 202.273 167.881 207.883 171.387 211.096C176.168 215.472 183.615 214.379 183.696 214.374C185.163 214.156 186.65 214.571 187.778 215.533C188.901 216.494 189.559 217.89 189.559 219.367V243.954C189.559 244.688 189.397 245.417 189.094 246.079C188.355 247.668 180.954 261.707 148.14 264.778C129.088 266.538 114.467 281.857 114.118 300.414V400.184ZM156.625 185.214L156.549 185.38C156.579 185.325 156.604 185.269 156.625 185.214Z" fill="#009DA4"/>
<path d="M255.312 261.985C239.846 257.624 233.027 250.04 230.335 245.912C229.799 245.088 229.516 244.131 229.516 243.15V232.728C229.516 222.059 234.13 211.87 242.502 204.043C245.887 200.881 248.821 197.148 251.229 192.934L260.012 197.952C257.103 203.047 253.531 207.585 249.408 211.435C243.104 217.328 239.629 224.892 239.629 232.728V241.526C241.829 244.303 247.025 249.135 258.054 252.246L255.312 261.985Z" fill="#009DA4"/>
<path d="M138.422 317.756H148.54V400.183H138.422V317.756Z" fill="#009DA4"/>
<path d="M197.846 363.101H207.964V400.184H197.846V363.101Z" fill="#009DA4"/>
<path d="M408 400.184H397.882V301.835C397.882 300.065 397.781 298.345 397.69 296.721C396.46 279.813 383.039 266.417 365.782 264.94C337.785 262.526 327.358 250.82 324.171 245.897C323.645 245.078 323.362 244.126 323.362 243.15V232.728C323.362 222.089 327.95 211.905 336.288 204.054C345.864 195.144 351.343 182.365 351.343 168.984C351.343 143.041 331.188 121.935 306.419 121.935C287.71 121.935 270.884 134.198 264.459 152.481C264.413 152.663 264.353 152.846 264.287 153.012C263.639 154.677 263.088 156.569 262.653 158.638C262.572 159.018 262.45 159.382 262.288 159.731L252.782 180.159H255.681C258.474 180.159 260.74 182.426 260.74 185.219V194.072C260.74 194.254 260.73 194.436 260.71 194.613C260.68 194.886 260.69 195.16 260.69 195.438C260.376 202.971 261.955 208.212 265.359 211.227C270.135 215.452 277.395 214.384 277.471 214.379C278.948 214.131 280.435 214.551 281.574 215.512C282.707 216.474 283.359 217.885 283.359 219.372V243.96C283.359 244.698 283.198 245.422 282.889 246.089C282.388 247.167 277.435 256.779 258.008 262C253.304 263.285 247.89 264.226 241.941 264.783C222.929 266.543 208.328 281.857 207.979 300.414V308.159H197.861V300.318C198.311 276.51 216.858 256.941 241.005 254.71C246.373 254.209 251.204 253.374 255.363 252.236C267.1 249.079 271.799 244.314 273.241 242.467V224.538C269.052 224.239 263.366 222.974 258.661 218.811C252.863 213.681 250.142 205.748 250.582 195.236C250.577 194.881 250.582 194.376 250.627 193.849V190.283H247.035C244.85 190.283 242.831 189.185 241.637 187.348C240.438 185.502 240.256 183.2 241.152 181.192L252.889 155.982C253.384 153.731 254.007 151.626 254.73 149.709C254.75 149.633 254.776 149.557 254.801 149.481C262.536 126.953 283.284 111.816 306.414 111.816C336.768 111.816 361.456 137.461 361.456 168.984C361.456 185.168 354.804 200.644 343.198 211.44C336.94 217.339 333.48 224.907 333.48 232.728V241.526C336.394 245.209 345.025 252.995 366.647 254.857C388.887 256.759 406.184 274.091 407.782 296.058C407.894 297.94 407.995 299.857 407.995 301.835L408 400.184Z" fill="#009DA4"/>
<path d="M363.369 317.756H373.487V400.183H363.369V317.756Z" fill="#009DA4"/>
<path d="M309.808 285.07L304.198 276.651C304.749 276.282 317.974 267.601 335.701 267.601V277.719C321.004 277.719 309.92 284.994 309.808 285.07Z" fill="#009DA4"/>
<path d="M286.734 286.122C286.622 286.046 275.391 278.766 260.831 278.766V268.647C278.558 268.647 291.783 277.324 292.334 277.698L286.724 286.116L289.531 281.907L286.734 286.122Z" fill="#009DA4"/>
</g>
<defs>
<clipPath id="clip0_8_252">
<rect width="304" height="304" fill="white" transform="translate(104 104)"/>
</clipPath>
</defs>
</svg>
