<svg width="512" height="512" viewBox="0 0 512 512" fill="none" xmlns="http://www.w3.org/2000/svg">
<path fill-rule="evenodd" clip-rule="evenodd" d="M223.1 92C227.629 92 231.3 95.6713 231.3 100.2V168.613C231.3 179.487 226.98 189.916 219.291 197.605L215.16 201.737C207.835 209.062 207.835 220.938 215.16 228.263C220.869 233.972 229.589 235.387 236.811 231.776L238.799 230.783C249.564 225.4 262.236 225.4 273.001 230.783L274.989 231.776C282.21 235.387 290.931 233.972 296.64 228.263C303.965 220.938 303.965 209.062 296.64 201.737L292.509 197.605C284.82 189.916 280.5 179.487 280.5 168.613V100.2C280.5 95.6713 284.171 92 288.7 92C293.229 92 296.9 95.6713 296.9 100.2V114.169C358.47 131.936 403.5 188.709 403.5 256C403.5 323.291 358.47 380.064 296.9 397.831V411.8C296.9 416.329 293.229 420 288.7 420C284.171 420 280.5 416.329 280.5 411.8V343.387C280.5 332.513 284.82 322.084 292.509 314.395L296.64 310.263C303.965 302.938 303.965 291.062 296.64 283.737C290.931 278.028 282.21 276.613 274.989 280.224L273.001 281.217C262.236 286.6 249.564 286.6 238.799 281.217L236.811 280.224C229.589 276.613 220.869 278.028 215.16 283.737C207.835 291.062 207.835 302.938 215.16 310.263L219.291 314.395C226.98 322.084 231.3 332.513 231.3 343.387V411.8C231.3 416.329 227.629 420 223.1 420C218.571 420 214.9 416.329 214.9 411.8V397.831C153.329 380.064 108.3 323.291 108.3 256C108.3 188.709 153.329 131.936 214.9 114.169V100.2C214.9 95.6713 218.571 92 223.1 92ZM214.9 131.334C162.519 148.55 124.7 197.859 124.7 256C124.7 314.142 162.519 363.45 214.9 380.667V343.387C214.9 336.862 212.308 330.604 207.694 325.991L203.562 321.86C189.833 308.13 189.833 285.87 203.562 272.14C214.263 261.44 230.61 258.787 244.145 265.555L246.133 266.548C252.281 269.623 259.518 269.623 265.667 266.548L267.655 265.555C281.189 258.787 297.536 261.44 308.237 272.14C321.966 285.87 321.966 308.13 308.237 321.86L304.105 325.991C299.492 330.604 296.9 336.862 296.9 343.387V380.667C349.281 363.45 387.1 314.142 387.1 256C387.1 197.859 349.281 148.55 296.9 131.334V168.613C296.9 175.138 299.492 181.396 304.105 186.009L308.237 190.14C321.966 203.87 321.966 226.13 308.237 239.86C297.536 250.56 281.189 253.213 267.655 246.445L265.667 245.452C259.518 242.377 252.281 242.377 246.133 245.452L244.145 246.445C230.61 253.213 214.263 250.56 203.562 239.86C189.833 226.13 189.833 203.87 203.562 190.14L207.694 186.009C212.308 181.396 214.9 175.138 214.9 168.613V131.334Z" fill="#009DA4"/>
</svg>
