<svg width="512" height="512" viewBox="0 0 512 512" fill="none" xmlns="http://www.w3.org/2000/svg">
<path fill-rule="evenodd" clip-rule="evenodd" d="M364.991 224.543C363.542 218.975 357.854 215.638 352.286 217.087C314.142 227.02 284.936 231.6 255.993 231.484C227.019 231.368 197.773 226.545 159.503 217.057C153.919 215.673 148.27 219.077 146.886 224.661C145.502 230.245 148.906 235.894 154.49 237.278C177.006 242.859 196.858 246.963 215.659 249.462L224.703 250.665V307.764L214.367 390.456C213.669 396.041 217.534 401.171 223.097 402.04C228.658 402.907 233.904 399.2 234.941 393.667L250.566 310.335C250.683 309.71 250.742 309.081 250.744 308.456H271.577C271.58 309.081 271.639 309.71 271.756 310.335L287.38 393.667C288.418 399.2 293.664 402.907 299.225 402.04C304.788 401.171 308.653 396.041 307.955 390.456L297.619 307.769V249.64L306.407 248.25C322.228 245.746 338.971 242.082 357.536 237.248C363.103 235.798 366.441 230.11 364.991 224.543ZM347.036 196.926C363.738 192.577 380.803 202.591 385.152 219.293C389.501 235.995 379.487 253.06 362.786 257.409C347.078 261.499 332.456 264.82 318.452 267.339V306.472L328.627 387.871C330.722 404.628 319.124 420.019 302.439 422.623C285.753 425.228 270.017 414.105 266.905 397.506L261.161 366.875L255.417 397.506C252.305 414.105 236.568 425.228 219.883 422.623C203.198 420.019 191.6 404.628 193.695 387.871L203.87 306.467V268.808C186.791 266.151 168.956 262.328 149.477 257.499C132.726 253.347 122.512 236.4 126.664 219.648C130.818 202.896 147.764 192.683 164.516 196.836C202.037 206.138 229.465 210.545 256.077 210.651C282.593 210.757 309.899 206.596 347.036 196.926Z" fill="#009DA4"/>
<path fill-rule="evenodd" clip-rule="evenodd" d="M255.956 110.502C238.698 110.502 224.706 124.493 224.706 141.752C224.706 159.011 238.698 173.001 255.956 173.001C273.215 173.001 287.205 159.011 287.205 141.752C287.205 124.493 273.215 110.502 255.956 110.502ZM203.873 141.752C203.873 112.987 227.192 89.6689 255.956 89.6689C284.721 89.6689 308.039 112.987 308.039 141.752C308.039 170.516 284.721 193.834 255.956 193.834C227.192 193.834 203.873 170.516 203.873 141.752Z" fill="#009DA4"/>
</svg>
