<svg width="512" height="512" viewBox="0 0 512 512" fill="none" xmlns="http://www.w3.org/2000/svg">
<path d="M126.31 271.826C126.31 276.099 127.378 279.839 127.913 283.578C128.447 285.715 128.447 287.851 128.981 289.988C131.118 307.082 139.13 319.902 152.485 326.847C154.088 327.915 154.622 328.984 155.156 331.12C163.169 363.171 179.728 387.744 204.301 404.304C207.506 406.44 210.711 408.577 214.45 410.18C219.258 412.85 225.134 414.987 231.01 417.124L232.078 417.658C236.352 419.795 241.16 420.863 245.967 421.932C250.241 422.466 254.514 423 258.788 423C259.322 423 259.856 423 260.39 423C264.13 423 268.403 422.466 272.142 421.932C276.95 420.863 281.223 419.795 285.497 417.658H286.565C292.441 415.521 298.317 413.385 303.125 410.714C306.33 409.111 309.535 406.974 312.74 404.838C325.561 395.757 336.779 384.005 345.326 370.65C349.065 364.24 352.804 357.295 356.009 349.283C357.078 346.612 357.612 343.407 358.68 340.736C359.749 336.462 360.283 333.257 362.419 330.586C364.556 327.915 367.227 325.778 369.898 323.642C371.501 322.573 372.569 321.505 374.172 319.902C383.787 310.821 386.458 299.603 387.526 290.522C387.526 288.386 388.06 286.249 388.594 284.112C389.129 280.373 389.663 276.099 390.197 272.36C390.197 269.689 390.731 266.484 390.197 263.279V262.21C390.731 252.595 385.389 241.377 375.24 238.706C374.172 238.172 373.103 238.172 372.035 238.172C372.035 237.104 372.569 236.57 372.569 235.501C372.569 234.433 373.103 233.365 373.103 232.296C373.103 230.694 373.637 229.625 373.637 228.023C374.172 223.749 374.706 219.476 375.24 215.736C377.911 205.053 379.513 193.835 380.048 183.151C381.116 147.361 363.488 119.049 331.437 104.626C328.232 103.024 324.492 101.421 320.753 100.353C299.386 93.9424 278.553 90.2031 257.185 89.6689C252.912 89.6689 248.104 89.6689 243.296 90.2031C226.737 91.2715 212.314 92.3399 198.425 99.2843C196.822 99.8184 195.22 100.887 194.151 101.955C188.81 105.16 184.002 109.968 180.263 115.844C179.728 116.912 178.66 117.981 178.126 119.049C175.989 122.254 175.455 123.857 172.25 125.993C167.976 129.199 164.771 131.335 161.032 132.938C155.156 135.609 150.882 139.348 147.677 144.69C143.404 152.703 140.733 162.318 140.199 175.138C139.665 187.959 140.199 200.779 141.267 210.395C141.801 214.668 142.335 218.942 143.404 223.749V224.283C144.472 229.091 145.541 233.899 145.541 238.706C143.938 238.706 142.335 238.706 140.733 239.241C130.583 241.377 125.242 253.129 125.776 262.745V263.279C126.31 265.95 126.31 269.155 126.31 271.826ZM139.665 261.142C139.665 257.403 141.801 252.061 144.472 251.527C145.541 251.527 146.609 251.527 147.677 250.993C148.746 250.993 149.814 250.993 150.348 250.993C150.882 250.993 151.951 250.993 152.485 250.458H153.553L154.622 249.924C157.827 247.788 159.964 244.582 159.964 240.843C160.498 233.899 158.895 227.489 157.827 221.078V220.544C157.293 216.805 156.224 212.531 156.224 209.326C155.69 200.245 154.622 187.959 155.156 175.673C155.69 165.523 157.293 157.51 161.032 151.634C162.634 148.429 165.84 146.827 167.976 145.758C172.784 143.622 177.057 140.951 181.865 137.211C186.673 133.472 188.275 130.267 190.412 127.062C190.946 125.993 191.48 125.459 192.015 124.391C194.686 120.117 198.425 116.912 202.164 114.241C202.698 112.105 203.767 111.571 204.835 111.036C216.053 105.694 229.408 104.626 244.365 103.558C248.638 103.558 252.912 103.024 257.185 103.024C276.95 103.024 296.181 106.763 314.343 113.173C317.548 114.241 320.753 115.844 323.958 116.912C350.667 128.664 365.625 152.703 364.556 182.617C364.022 192.232 362.954 202.382 360.283 212.531C359.214 217.339 358.68 222.147 358.146 226.42C358.146 227.489 358.146 229.091 357.612 230.159C357.612 230.694 357.612 231.228 357.078 232.296C356.009 237.104 355.475 240.843 357.078 244.048C359.749 250.458 365.625 250.458 368.295 250.993C368.83 250.993 369.364 250.993 369.898 250.993C372.569 251.527 375.24 256.869 374.706 260.608V262.21V262.745C374.706 265.416 374.706 268.621 374.706 270.757C374.706 274.497 374.172 277.702 373.637 281.441C373.103 283.578 373.103 285.715 372.569 287.851C371.501 298.001 368.83 303.877 363.488 308.685C362.419 309.753 360.817 310.821 359.749 311.89C356.543 314.561 353.338 317.231 350.667 320.971C346.928 325.778 345.326 331.654 344.257 336.462C343.723 338.599 343.189 341.27 342.12 343.407C338.915 350.885 336.244 357.295 332.505 362.637C325.027 374.923 314.877 385.073 303.659 393.086C300.988 395.222 297.783 396.825 295.112 398.427C290.839 400.564 286.031 402.701 280.689 404.838C280.155 404.838 279.621 405.372 279.087 405.372C275.347 406.974 272.142 408.043 268.403 408.577C265.198 409.111 261.459 409.645 257.719 409.645C254.514 409.645 250.775 409.645 247.57 408.577C243.831 408.043 240.091 406.974 236.352 405.372L234.749 404.838C229.408 403.235 224.066 401.098 220.326 398.962C217.121 397.359 214.45 395.757 211.779 393.62C189.878 378.663 175.989 357.295 168.511 327.915C167.442 323.108 164.771 319.902 161.032 316.163L158.895 315.095C146.609 308.685 142.87 295.33 142.335 288.386C141.801 286.249 141.801 284.112 141.267 281.975C140.733 278.236 140.199 274.497 140.199 271.292C140.199 268.621 140.199 265.95 140.199 263.279V262.745L139.665 261.142Z" fill="#009DA4"/>
<path d="M186.141 217.875L187.209 204.521C182.936 203.986 177.594 203.986 173.32 203.986V217.341C177.594 217.341 181.867 217.341 186.141 217.875Z" fill="#009DA4"/>
<path d="M229.941 215.203C226.735 213.601 222.996 211.998 219.791 210.93L215.518 223.75C218.723 224.818 221.394 225.887 224.599 227.489L229.941 215.203Z" fill="#009DA4"/>
<path d="M209.109 207.725C205.37 206.656 202.165 206.122 198.426 205.588L196.289 218.942C199.494 219.477 202.699 220.011 205.904 221.079L209.109 207.725Z" fill="#009DA4"/>
<path d="M251.31 229.092C247.57 225.887 243.831 223.216 239.558 220.545L232.613 231.763C236.353 233.9 239.558 236.57 242.229 239.241L251.31 229.092Z" fill="#009DA4"/>
<path d="M341.053 217.341V203.986C336.245 203.986 331.438 203.986 327.164 204.521L328.232 217.875C332.506 217.341 336.779 217.341 341.053 217.341Z" fill="#009DA4"/>
<path d="M318.08 218.942L315.943 205.588C312.204 206.122 308.465 206.656 305.26 207.725L308.465 220.545C311.67 220.011 314.875 219.477 318.08 218.942Z" fill="#009DA4"/>
<path d="M298.854 223.216L294.58 210.93C290.841 211.998 287.636 213.601 284.431 215.203L290.307 227.489C292.978 225.887 296.183 224.284 298.854 223.216Z" fill="#009DA4"/>
<path d="M281.758 231.763L274.814 220.545C270.54 223.216 266.801 225.887 263.062 229.092L272.143 239.241C274.814 236.57 278.019 233.9 281.758 231.763Z" fill="#009DA4"/>
<path d="M219.257 300.672L217.12 314.026C219.791 314.561 222.996 314.561 226.201 314.561C227.27 314.561 228.338 314.561 229.406 314.561L228.872 301.206C225.133 301.206 221.928 301.206 219.257 300.672Z" fill="#009DA4"/>
<path d="M209.642 298.537C206.971 297.469 203.766 296.4 200.561 294.798L194.15 306.55C197.89 308.687 201.095 309.755 204.834 311.358L209.642 298.537Z" fill="#009DA4"/>
<path d="M175.991 293.194C179.196 295.865 181.867 298.002 185.072 300.139L192.551 289.455C189.88 287.853 187.209 285.716 184.538 283.045L175.991 293.194Z" fill="#009DA4"/>
<path d="M338.382 293.194L329.835 283.045C327.164 285.182 324.493 287.318 321.822 289.455L329.301 300.139C332.506 298.002 335.177 295.865 338.382 293.194Z" fill="#009DA4"/>
<path d="M286.033 301.206L285.499 314.561C286.567 314.561 287.636 314.561 288.704 314.561C291.375 314.561 294.58 314.561 297.785 314.026L295.649 300.672C292.443 301.206 289.238 301.206 286.033 301.206Z" fill="#009DA4"/>
<path d="M319.687 306.55L313.276 294.798C310.606 296.4 307.4 297.469 304.195 298.537L308.469 311.358C312.742 309.755 315.947 308.152 319.687 306.55Z" fill="#009DA4"/>
</svg>
