<svg width="512" height="512" viewBox="0 0 512 512" fill="none" xmlns="http://www.w3.org/2000/svg">
<path d="M144.003 307.414C115.508 307.414 92.0016 293.489 74.0601 265.966C65.4123 252.7 59.9819 236.927 56.9629 216.325C56.061 210.172 55.5749 203.999 55.1016 198.032C54.8969 195.428 54.6858 192.742 54.4428 190.132L54.3916 189.589L54.4108 189.045C55.0056 171.103 56.5727 150.348 67.7534 131.159C86.827 98.4164 115.604 82.5985 153.29 84.1208C168.264 84.7284 180.423 88.1824 190.459 94.6746C209.264 106.84 219.057 125.421 219.556 149.913C219.728 158.432 218.148 166.396 214.854 173.572C212.865 177.909 207.735 179.809 203.392 177.819C199.049 175.83 197.156 170.7 199.145 166.357C201.371 161.503 202.401 156.239 202.273 150.264C201.889 131.6 194.956 118.162 181.069 109.181C173.599 104.346 164.548 101.87 152.587 101.384C121.367 100.111 98.5002 112.699 82.6822 139.851C74.527 153.853 72.3715 169.671 71.6999 189.07C71.9301 191.616 72.1348 194.175 72.3331 196.656C72.8064 202.605 73.2478 208.221 74.0665 213.811C76.7017 231.861 81.3006 245.434 88.5348 256.525C103.246 279.098 121.45 290.125 144.054 290.125C145.538 290.125 147.041 290.08 148.57 289.984C161.516 289.178 171.373 284.503 178.703 275.701C187.677 264.924 192.001 248.472 177.232 234.631C173.752 231.369 173.573 225.9 176.835 222.421C180.097 218.935 185.566 218.762 189.052 222.024C198.941 231.286 204.153 242.729 204.141 255.112C204.128 266.126 199.81 277.364 191.988 286.76C181.594 299.246 167.349 306.135 149.651 307.241C147.745 307.356 145.858 307.414 144.003 307.414Z" fill="#009DA4"/>
<path d="M224.599 211.396C210.962 194.459 190.756 185.606 174.542 179.805C172.693 175.289 170.135 171.285 167.461 167.454C171.005 164.594 173.288 160.712 174.945 157.878L182.461 145.047C184.066 142.303 183.145 138.773 180.401 137.167C177.657 135.562 174.126 136.483 172.521 139.227L165.005 152.058C163.662 154.354 162.319 156.529 160.835 157.961C158.327 154.098 156.3 150.177 155.43 145.847C154.803 142.732 151.765 140.704 148.644 141.338C145.529 141.964 143.501 145.003 144.128 148.124C145.957 157.175 150.933 164.134 155.743 170.856C158.89 175.257 161.903 179.453 163.796 183.969C164.186 184.877 164.519 185.804 164.807 186.738C165.517 189.079 165.849 191.369 165.805 193.627C165.741 197.273 164.698 200.842 162.671 204.43C159.69 209.707 154.88 214.44 149.27 218.444L127.178 208.23L119.598 206.068C116.541 205.198 113.349 206.97 112.479 210.027C111.609 213.084 113.381 216.276 116.438 217.146L123.154 219.058L137.105 225.506C132.276 227.783 127.395 229.529 122.95 230.655C119.86 231.442 117.993 234.569 118.779 237.652C119.432 240.268 121.779 242.002 124.351 242.002C124.817 242.002 125.304 241.944 125.771 241.823C133.951 239.757 143.117 235.989 151.413 230.828C151.426 230.821 151.432 230.815 151.445 230.808C152.756 230.508 153.952 229.753 154.784 228.634L154.81 228.615C162.21 223.51 168.657 217.248 172.7 210.104C174.862 206.285 176.263 202.383 176.915 198.431C189.241 203.42 202.634 210.545 211.691 221.79C228.226 242.315 227.106 271.943 223.262 293.197C221.42 303.406 218.734 313.806 216.13 323.861C211.966 339.999 207.655 356.693 206.357 373.937C205.257 388.553 206.325 403.226 209.542 417.534C210.406 421.385 213.828 424.001 217.614 424.001C218.222 424.001 218.823 423.937 219.437 423.796C223.902 422.786 226.703 418.359 225.699 413.901C222.846 401.192 221.9 388.163 222.872 375.172C224.062 359.399 228.002 344.144 232.166 327.999C234.839 317.65 237.603 306.956 239.553 296.14C244.031 271.495 245.054 236.789 224.599 211.396Z" fill="#009DA4"/>
<path d="M363.995 307.414C392.49 307.414 415.997 293.489 433.938 265.966C442.586 252.7 448.016 236.927 451.035 216.325C451.937 210.172 452.423 203.999 452.897 198.032C453.101 195.428 453.312 192.742 453.555 190.132L453.607 189.589L453.587 189.045C452.992 171.103 451.425 150.348 440.245 131.159C421.171 98.4164 392.394 82.5985 354.708 84.1208C339.734 84.7284 327.575 88.1824 317.539 94.6746C298.734 106.84 288.941 125.421 288.442 149.913C288.27 158.432 289.85 166.396 293.144 173.572C295.133 177.909 300.263 179.809 304.606 177.819C308.949 175.83 310.842 170.7 308.853 166.357C306.627 161.503 305.597 156.239 305.725 150.264C306.109 131.6 313.042 118.162 326.929 109.181C334.4 104.346 343.45 101.87 355.411 101.384C386.631 100.111 409.498 112.699 425.316 139.851C433.471 153.853 435.627 169.671 436.298 189.07C436.068 191.616 435.863 194.175 435.665 196.656C435.192 202.605 434.75 208.221 433.932 213.811C431.29 231.855 426.685 245.421 419.457 256.519C404.746 279.091 386.542 290.118 363.937 290.118C362.454 290.118 360.95 290.074 359.422 289.978C346.476 289.172 336.619 284.496 329.289 275.695C320.315 264.917 315.991 248.466 330.76 234.625C334.24 231.363 334.419 225.894 331.157 222.414C327.895 218.928 322.426 218.755 318.94 222.018C309.051 231.279 303.838 242.722 303.851 255.105C303.864 266.12 308.181 277.358 316.004 286.754C326.398 299.24 340.642 306.128 358.341 307.235C360.253 307.356 362.14 307.414 363.995 307.414Z" fill="#009DA4"/>
<path d="M283.396 211.396C297.032 194.459 317.238 185.606 333.453 179.805C335.301 175.289 337.86 171.285 340.533 167.454C336.99 164.594 334.706 160.712 333.05 157.878L325.534 145.047C323.929 142.303 324.85 138.773 327.594 137.167C330.338 135.562 333.868 136.483 335.474 139.227L342.989 152.058C344.333 154.354 345.676 156.529 347.16 157.961C349.667 154.098 351.695 150.177 352.565 145.847C353.191 142.732 356.23 140.704 359.351 141.338C362.466 141.964 364.494 145.003 363.867 148.124C362.037 157.175 357.061 164.134 352.251 170.856C349.104 175.257 346.092 179.453 344.198 183.969C343.808 184.877 343.476 185.804 343.188 186.738C342.478 189.079 342.145 191.369 342.19 193.627C342.254 197.273 343.296 200.842 345.324 204.43C348.305 209.707 353.115 214.44 358.724 218.444L380.817 208.23L388.396 206.068C391.454 205.198 394.646 206.97 395.515 210.027C396.385 213.084 394.614 216.276 391.556 217.146L384.84 219.058L370.89 225.506C375.719 227.783 380.599 229.529 385.045 230.655C388.134 231.442 390.002 234.569 389.215 237.652C388.563 240.268 386.215 242.002 383.644 242.002C383.177 242.002 382.691 241.944 382.224 241.823C374.043 239.757 364.877 235.989 356.581 230.828C356.569 230.821 356.562 230.815 356.549 230.808C355.238 230.508 354.042 229.753 353.211 228.634L353.185 228.615C345.785 223.51 339.337 217.248 335.295 210.104C333.133 206.285 331.732 202.383 331.08 198.431C318.754 203.42 305.36 210.545 296.303 221.79C279.769 242.315 280.888 271.943 284.732 293.197C286.574 303.406 289.261 313.806 291.864 323.861C296.028 339.999 300.339 356.693 301.638 373.937C302.738 388.553 301.67 403.226 298.452 417.534C297.589 421.385 294.167 424.001 290.38 424.001C289.773 424.001 289.171 423.937 288.557 423.796C284.093 422.786 281.291 418.359 282.295 413.901C285.148 401.192 286.095 388.163 285.123 375.172C283.933 359.399 279.993 344.144 275.829 327.999C273.155 317.65 270.392 306.956 268.441 296.14C263.964 271.495 262.94 236.789 283.396 211.396Z" fill="#009DA4"/>
</svg>
